<?xml version="1.0" encoding="UTF-8" standalone="no"?>
<!-- Created with Inkscape (http://www.inkscape.org/) -->

<svg
   width="85.280968mm"
   height="86.346352mm"
   viewBox="0 0 85.280968 86.346352"
   version="1.1"
   id="svg1"
   xml:space="preserve"
   xmlns="http://www.w3.org/2000/svg"
   xmlns:svg="http://www.w3.org/2000/svg"><defs
     id="defs1" /><g
     id="layer1"
     transform="translate(-62.179636,-123.14425)"><ellipse
       style="fill:#2b1100;stroke-width:0.298615"
       id="path8"
       cx="104.76289"
       cy="165.91634"
       rx="40.852516"
       ry="41.353771" /><ellipse
       style="display:inline;fill:#993812;fill-opacity:1;stroke-width:0.277388"
       id="path9"
       cx="105.7654"
       cy="164.78851"
       rx="34.837421"
       ry="31.955185" /><ellipse
       style="fill:#d8a494;fill-opacity:1;stroke-width:0.28651"
       id="path176"
       cx="104.46819"
       cy="164.41832"
       rx="25.593119"
       ry="25.847145" /><path
       id="path170"
       style="display:inline;fill:#447821;fill-opacity:1;stroke-width:0.271436"
       d="m 105.76263,147.8614 c -7.823896,-0.35627 -15.950793,4.94462 -17.706225,12.77853 -1.259194,4.78264 -0.50336,10.16615 2.416203,14.21207 1.273144,0.0503 0.558213,1.85417 1.793013,2.26156 1.756636,2.10647 3.582285,4.15481 5.455763,6.15786 3.685916,-0.38448 7.398226,-0.58906 11.103526,-0.42678 -0.98058,0.69482 -1.96158,-1.56827 -3.0816,-1.94786 -1.76524,-1.43378 -3.51551,-3.18392 -3.98184,-5.49833 0.19231,-3.32324 3.25948,-5.45039 6.06469,-6.61952 0.948,-0.41481 2.92439,-1.86701 3.58734,-0.87967 -1.29247,1.27526 -3.20938,1.63535 -4.63587,2.74795 -1.62841,0.64364 -2.74136,3.38075 -0.59435,4.06721 2.1206,0.21736 3.93594,-1.10843 5.8013,-1.88083 1.1557,-0.81456 -1.38041,-2.28936 0.72518,-2.27069 1.46496,-0.39893 3.34418,-1.01615 3.55939,-2.76294 0.7925,-1.57294 0.26998,-4.17997 -1.71833,-4.48239 -1.63657,0.1103 -3.32249,0.033 -4.91794,0.57244 -1.56871,0.54359 -3.27003,0.74299 -4.87073,0.78615 -2.43675,1.34386 -2.7519,4.39382 -3.20057,6.85592 0.16158,1.55939 -0.67683,3.381 -2.361521,3.65886 -1.933813,0.39582 -2.791855,-1.67689 -3.715586,-2.9376 -3.366949,-5.2718 -2.422487,-13.09478 2.68836,-16.93386 3.752297,-3.05104 9.371957,-2.90869 13.388207,-0.4485 1.42452,1.70394 4.71719,1.98118 5.77426,-0.25551 0.7808,-1.32425 0.0907,-3.01519 -1.25786,-3.62564 -3.20668,-1.6415 -6.63146,-3.18546 -10.31481,-3.12843 z m 11.59206,29.66589 -0.0406,0.0167 z m -2.84324,-3.54294 c -2.79515,0.66618 -4.78205,3.7115 -7.87292,3.25862 -1.68911,-0.25565 -3.4662,-0.29244 -5.16538,-0.007 -1.97334,-0.11153 -2.436348,2.47108 -0.45693,2.8905 2.50787,0.90415 5.09632,1.61219 7.69635,2.20431 1.50282,0.74126 3.68146,-0.60322 4.66152,0.5714 1.54656,0.20936 2.05987,-1.94121 3.00789,-2.87119 1.19728,-1.05121 2.60571,-2.87746 1.47859,-4.46711 -0.81963,-0.99468 -2.22391,-1.12255 -3.34912,-1.58001 z" /><path
       style="display:inline;fill:#5c1c0c;stroke-width:0.221483"
       d="m 97.416383,207.94673 c 1.328252,-0.94796 -0.02737,2.06824 0,0 z M 92.854361,205.801 c 0.201201,-0.41582 0.0711,0.444 0,0 z m -1.688724,-0.29824 c -0.09644,-1.23428 0.803105,0.80976 0,0 z m 10.430933,-0.20878 C 82.724624,203.34 65.691647,186.9749 65.713563,167.49486 c -1.175951,-13.59675 5.000552,-27.8187 17.058341,-34.76633 14.832452,-10.13552 36.149786,-8.69847 49.295996,3.61884 17.80898,15.08314 15.77225,45.96992 -2.5135,59.8316 -7.57912,6.93964 -18.1488,8.30582 -27.95783,9.11501 z m 4.51226,-2.56559 c 21.71059,-0.4375 40.67778,-22.53032 35.86005,-44.16012 -2.45193,-16.04325 -16.61681,-28.85522 -32.71821,-30.19651 -19.871362,-3.00249 -41.178687,12.74496 -41.659753,33.33801 -0.531882,15.21498 6.460778,32.03872 21.371498,38.0055 5.457205,2.05837 11.289735,3.3061 17.146415,3.01312 z m -4.71134,-0.8496 c -16.60224,-0.85952 -31.264415,-15.00523 -32.237911,-31.69743 -2.575565,-13.05199 2.926039,-27.231 14.163396,-34.55527 18.223455,-13.29054 48.411195,-5.59812 55.876495,16.36443 5.59168,14.477 1.32951,32.6216 -11.79393,41.5692 -7.23951,5.82923 -16.66353,9.2445 -26.00805,8.31907 z m 6.48889,-1.25423 c 19.4252,-2.22625 36.49353,-22.05692 31.50583,-41.89117 -2.51138,-13.02902 -12.47522,-24.77865 -25.85589,-27.22431 -17.893916,-5.21267 -39.030526,6.77499 -42.752063,25.25118 -3.561536,14.9855 3.151105,31.92631 16.949305,39.28625 6.10464,3.26638 13.198398,5.2225 20.152818,4.57805 z m -4.06298,-0.75475 c -18.681531,-0.63754 -35.047027,-18.32928 -32.890173,-37.19048 0.351604,-13.99676 10.739057,-26.36688 24.083172,-30.08231 16.002781,-4.84266 35.739291,3.2893 41.309681,19.62621 4.8479,11.34217 3.76798,25.38569 -4.97583,34.60404 -6.83957,7.8759 -17.03492,12.95585 -27.52685,13.04254 z m 3.43791,-1.58291 c 18.30898,-2.00802 34.57625,-20.5512 29.74734,-39.29892 -2.45992,-12.82965 -12.92971,-23.76267 -26.03834,-25.6237 -13.826362,-2.95638 -29.595373,4.6488 -35.650301,17.47163 -6.355533,14.55635 -2.116448,34.0908 12.329231,42.15451 5.868784,3.50247 12.7456,5.58048 19.61207,5.29648 z m -3.43791,-0.68826 C 86.735423,196.5606 71.314911,180.71926 73.351504,163.1803 c 0.262505,-11.94657 8.067779,-23.07159 19.312153,-27.20147 12.165273,-5.0665 27.673573,-1.67323 36.413513,8.19768 8.66547,11.25384 11.33586,28.74695 1.40813,40.14737 -6.41055,7.95721 -16.38193,13.17018 -26.6619,13.27476 z m 5.50847,-2.10852 c 17.15294,-2.27668 30.443,-21.31781 24.55955,-38.09854 -3.81789,-15.97623 -21.90748,-26.09447 -37.567572,-21.34454 -13.484896,3.31554 -23.805372,16.85058 -21.784606,30.89251 1.097302,15.16558 14.002336,29.06449 29.683458,28.78599 1.70563,0.0626 3.41671,-0.0137 5.10917,-0.23542 z m -3.53233,0.0316 c 0.93227,0.005 0.74114,0.004 0,0 z m 1.84401,-0.0433 c 0.30313,-1.24562 0.69077,0.93913 0,0 z m -3.21461,-0.0333 0.41842,2.6e-4 z m -1.05374,-0.0777 0.24356,5.8e-4 z m 5.70422,0.002 0.23058,0.005 z m -6.40851,-0.0779 0.23981,0.002 h 5.3e-4 l -0.23981,-0.002 z m 6.95545,-2.2e-4 0.23058,0.005 z m -7.95166,-0.14384 c 1.11505,-0.60479 0.14587,1.41008 0,0 z m 8.47758,0.0417 c -0.39014,-1.15285 0.96036,0.4931 0,0 z m -5.07873,-0.16936 c -8.395479,1.36432 -20.514728,-6.88346 -22.328536,-10.7789 7.782774,8.47266 20.028076,12.91262 31.262066,9.3719 3.65497,0.20941 -7.06675,1.96182 -8.93353,1.407 z m 7.46261,-0.53513 c 0.75863,1.57533 0.79004,-1.25194 0,0 z m 1.99164,-0.8927 c -0.49599,-0.4204 0.12587,0.66171 0,0 z M 94.655637,192.7313 c -0.361398,-0.0819 0.399129,0.4087 0,0 z m -0.390672,-0.0816 c 0.134618,-0.71485 -0.354638,0.39586 0,0 z m -0.325558,-0.1172 c 0.286393,-0.58531 -0.405582,0.20969 0,0 z m -6.993023,-4.32625 c -0.155941,-0.98821 -0.400638,0.84802 0,0 z m -0.74267,-0.72542 c -1.210764,-3.07857 -0.305798,1.27058 0,0 z m -0.192677,0.13219 c 0.76864,0.15996 -0.846442,0.75638 0,0 z m 24.751663,7.44447 0.14106,0.0143 z m -9.84981,-0.0765 0.1906,0.004 z m 10.16235,-0.002 0.14106,0.0143 z m -10.55302,-0.0765 0.1906,0.004 z m 10.91927,-0.0264 c -0.77375,-0.81434 0.94569,0.0915 0,0 z m -11.22692,-0.0534 0.14107,0.0143 z m 0.13185,-0.25916 c 0.42433,-0.21465 -0.29191,0.57211 0,0 z m -3.281641,-1.09388 c 0.999575,-0.0626 -0.888672,0.90672 0,0 z m 6.028671,-0.5274 c 13.97095,-0.76632 29.19013,-11.08535 28.93354,-26.31578 0.46525,-14.70434 -12.06423,-29.62072 -27.4596,-28.22038 -9.783628,0.3507 -19.560481,5.65144 -24.300456,14.37095 6.230259,-14.35509 26.336746,-18.76552 39.305256,-11.33587 15.68275,9.62738 17.95814,36.30502 1.30263,46.17868 -5.20328,3.51253 -11.48133,5.52222 -17.78137,5.3224 z m 6.43375,-0.72736 c 0.73541,1.27681 0.40579,-1.38748 0,0 z m 2.83437,-0.54699 c 3.10597,1.87469 0.63281,-3.8588 0,0 z m -0.37314,-0.15161 c -0.83601,-0.0669 0.49547,-0.34949 0,0 z m 2.81402,-0.95714 c 2.17968,1.3484 0.32353,-2.85783 0,0 z m 1.67871,-0.87065 c 0.3376,-0.39453 -0.0344,0.5987 0,0 z m 1.95335,-0.91527 c 2.68651,0.26133 0.55608,-3.24241 0,0 z m 4.76768,-3.07973 c 2.67643,0.007 -1.14588,-2.71604 0,0 z m 1.94497,-2.12737 -0.35302,0.28151 z m 0.0454,0.21576 c -0.38658,-0.285 0.16093,0.50612 0,0 z m 1.03862,-0.87153 c 1.41489,0.52192 -0.55889,-1.44462 0,0 z m 0.34881,-0.80082 c -1.9049,-0.69148 1.01818,-0.75634 0,0 z m 3.34024,-4.34489 c 0.6738,-0.48324 -0.60822,-0.0413 0,0 z m 0.46881,-1.48455 c -0.30946,-0.23441 0.17647,0.50019 0,0 z m 0.33693,-0.56647 c 2.18194,0.0709 -0.61177,-1.32949 0,0 z m 0.37625,-0.82041 c 1.50051,-0.96238 -1.2945,-1.539 0,0 z m 0.6151,-2.86308 c -0.33762,-0.39452 0.0344,0.59871 0,0 z m 0.21839,-0.69203 c -1.21939,0.95754 1.74936,0.47271 0,0 z m -0.0264,-0.28761 c 0.55057,-0.24805 -0.30699,-0.13673 0,0 z m -0.11386,-9.2597 c 0.56237,-0.71421 -0.54115,0.13396 0,0 z m -0.0359,-0.58542 c 1.90788,-1.0765 -1.1058,-0.45743 0,0 z m -0.38597,-2.36876 c 0.10906,-0.68716 -0.4358,0.45623 0,0 z m -0.23435,-0.35015 c -0.92593,0.0995 1.05116,0.59544 0,0 z m -0.13095,-0.32273 c 2.08906,0.63027 -0.30096,-1.42842 0,0 z m -0.18142,-0.22404 c -0.47526,0.13088 0.5732,0.1808 0,0 z m -0.0651,-0.29463 c 1.55881,-0.16076 -0.60603,-0.85024 0,0 z m 0.20992,-0.26807 c 0.55122,-0.24694 -0.30667,-0.13775 0,0 z m -0.23997,-0.4156 c 0.41088,-1.34881 -1.82371,-0.67386 0,0 z m -0.60596,-1.58381 c -0.31176,1.07884 -0.38872,-0.87059 0,0 z m -0.28665,-1.07276 c 1.1272,-1.01579 -1.35779,-0.26812 0,0 z m -0.54517,-0.93516 c -0.60883,0.0131 0.58935,0.3872 0,0 z m -0.30985,-0.10191 c -0.73838,0.40193 0.94029,0.34084 0,0 z m -0.11869,-0.27168 c 0.669,-0.32227 -0.57323,-0.18688 0,0 z m 0.0316,-0.50614 c 1.45168,-1.59325 -1.42686,-0.47315 0,0 z m -0.30504,0.11547 c 0.16735,-0.50437 -0.29525,0.22854 0,0 z m -0.22561,-1.03821 c 0.0992,0.8101 0.60588,-0.82464 0,0 z m -0.38514,-0.69768 c 0.23178,0.53525 0.33906,-0.69275 0,0 z m -0.15627,-0.31254 c 0.23211,0.53527 0.3383,-0.69295 0,0 z m -46.518885,-0.12476 c 2.61386,-1.13304 0.384812,-3.55133 0,0 z m 46.426435,-0.0928 c 0.16608,-0.50466 -0.2954,0.22956 0,0 z m -0.20745,-0.35498 c -0.26859,-0.36027 0.12815,0.43679 0,0 z m -2.37099,-3.08293 c 0.16725,-0.50418 -0.29519,0.22855 0,0 z m -0.0686,-0.36528 c 0.0774,0.85218 0.70986,-0.72787 0,0 z m 0.0295,-0.33793 c 0.28738,-0.58507 -0.40586,0.20884 0,0 z m -0.34162,-0.45015 c 2.05856,-0.78622 -1.16937,-0.76077 0,0 z m -39.095051,-0.16028 c -0.435453,-0.47554 0.131928,0.72648 0,0 z m 38.397481,-0.10841 c -0.37305,-0.65377 -0.0261,0.47143 0,0 z m -38.145172,-0.0495 c -0.02803,-0.54476 -0.256011,0.43337 0,0 z m 1.393397,-1.51711 c 1.577339,0.6484 0.812749,-1.04667 0,0 z m 35.240785,0.0456 c -0.2626,-1.33256 -0.93921,1.05622 0,0 z m -33.950885,-0.84248 c -0.445591,-0.30799 0.24255,0.59972 0,0 z m 32.675695,-0.11598 -0.42395,-0.28176 z m -32.350819,-0.0833 c -0.424051,-0.21533 0.291035,0.5723 0,0 z m 31.566259,-0.56907 c 0.26067,-1.24125 -0.80764,0.6693 0,0 z m -25.312864,-1.92793 c 1.665326,0.51611 0.542157,-1.15619 0,0 z m 22.417294,0.11638 c 0.89754,-0.6811 -0.97087,-0.12394 0,0 z m -0.347,-0.15039 c -0.33762,-0.39452 0.0344,0.59871 0,0 z m -22.15108,-0.28183 c -0.309746,-0.23418 0.176472,0.50008 0,0 z m 20.45166,-0.36428 -0.1906,0.004 z m -0.95715,-0.29525 c 0.11567,-0.45955 -0.32396,0.29429 0,0 z M 101.5575,192.8797 c -3.121378,-0.45575 3.17992,0.17385 0,0 z m 15.07992,-0.0698 0.37203,-0.1917 z m -16.837941,-0.1747 c -14.491291,-2.10301 -24.768585,-18.1503 -21.256415,-32.23318 -2.152057,12.29014 4.366537,25.55856 16.232773,30.15521 1.638473,0.77629 3.320867,1.45674 5.023642,2.07797 z m -6.705504,-2.76744 c 1.097071,-1.72999 -1.433765,-0.0413 0,0 z m -2.308764,-0.79993 c 0.99783,-0.29993 -0.717971,-0.29801 0,0 z m -2.393342,-1.77037 c 1.130101,-0.81094 -1.024049,-0.40623 0,0 z m -1.495363,-1.28921 c 0.02487,-3.08645 -3.338837,-0.10305 0,0 z m -0.497061,-0.42974 c -0.167285,-0.50435 0.295518,0.22852 0,0 z m -1.973775,-1.98947 c 1.392125,-0.15539 -0.609588,-0.87533 0,0 z m 0.332955,-0.15922 c 0.529487,-0.52414 -0.402328,-0.0811 0,0 z m -1.297988,-1.58222 c 0.956929,-1.33634 -1.224328,-0.37144 0,0 z m -1.150221,-1.38345 c -0.418315,-0.16327 0.351636,0.49369 0,0 z m -0.648735,-1.175 c 0.443089,-0.60082 -0.472613,-0.0364 0,0 z m -1.044176,-1.01159 c 0.114621,-0.4592 -0.323056,0.29499 0,0 z m -0.158119,-0.51594 c 1.529939,-0.67764 -0.804389,-0.48787 0,0 z m -0.362614,-0.80244 c 1.280374,-0.56421 -1.170368,-0.28213 0,0 z m -0.235428,-0.77925 c -0.905469,0.0816 0.904535,0.508 0,0 z m -0.103315,-0.29008 c -0.309705,-0.23431 0.176304,0.50011 0,0 z m -0.02886,-0.43132 c 1.67853,-1.01071 -0.993834,-0.42389 0,0 z m -0.464702,-0.4428 -0.01443,0.14115 z m 39.352363,17.55924 c 0.36147,-0.0824 -0.39868,0.40897 0,0 z m -1.2762,-0.15421 0.21353,-0.11354 z m -16.21287,-0.20434 0.52592,0.0273 z m -0.93761,-0.15276 c 1.22496,-0.46999 -0.311463,1.48667 0,0 z m -0.527402,-0.12988 0.190632,0.004 z M 118.74705,191.562 c 2.32129,-3.3257 10.98267,-9.07701 3.53794,-2.95903 -1.17963,0.98596 -2.36601,1.96388 -3.53794,2.95903 z m 5.4324,-4.56198 -0.18414,0.1177 z m 0.66208,-0.67923 c -0.44594,-0.0168 0.53871,0.59473 0,0 z m -23.83097,4.17492 c -19.686922,-2.379 -28.584459,-30.71675 -14.059107,-44.13006 12.178025,-12.29238 36.553297,-7.63207 41.803867,9.4048 4.99,12.77288 -1.56698,29.44065 -15.27701,33.2751 -3.96895,1.42973 -8.27415,2.00743 -12.46775,1.45016 z m -0.96184,-0.58218 0.12263,-0.009 z m 6.74378,0.0388 c 16.59019,-0.72529 28.70174,-20.99938 20.38576,-35.73473 -5.81532,-12.95098 -23.5061,-18.6876 -35.431618,-10.50704 -11.039393,6.63892 -14.797787,22.12839 -8.113379,33.13094 4.377074,8.24971 13.537979,14.57997 23.159237,13.11083 z m -5.39127,-2.78241 c -18.123396,-1.88715 -25.572698,-29.16629 -10.742287,-39.90345 10.443427,-8.34696 29.125737,-5.9489 34.068357,7.51934 4.92042,10.53084 1.70533,25.61195 -10.0624,29.92329 -4.14614,1.84804 -8.73304,2.67429 -13.26367,2.46082 z m 4.9804,-0.62187 c 11.96791,-0.7783 22.72454,-12.54595 19.70906,-24.77503 -1.33437,-11.00893 -11.66699,-20.79081 -23.14385,-18.74792 -11.807747,1.11844 -22.206096,12.80578 -19.240636,24.89119 1.649669,10.50591 11.238887,21.03998 22.675426,18.63176 z m -2.18503,-2.43325 0.44477,4.2e-4 z m 1.20902,0.001 0.44034,5e-4 z m 0.97668,-0.001 0.44635,1.2e-4 z m -3.31923,-0.075 0.23059,0.005 z m 4.68658,2.2e-4 0.23981,0.002 h 5.3e-4 l -0.23981,-0.002 z m -5.38978,-0.0784 0.23059,0.005 z m 6.01634,0 0.23058,0.005 z m -6.60384,-0.0757 0.1906,0.004 z m 7.19324,-0.002 0.14106,0.0143 z m -7.65716,-0.0781 0.14107,0.0143 z m 8.12597,0 0.14106,0.0143 z m 0.31253,-0.0781 0.14106,0.0143 z m 0.70321,-0.15627 0.14106,0.0143 z m 0.31254,-0.0781 0.14106,0.0143 z m -12.525908,-0.53539 c 1.033519,-0.18966 -0.46161,1.03928 0,0 z m -0.898543,-0.34885 c 0.799621,0.1548 -0.831881,0.5266 0,0 z m -0.781344,-0.35161 c 1.404883,0.23401 -0.952142,1.32095 0,0 z m 17.814625,-0.0391 c -0.74489,-0.53602 0.75841,-0.0918 0,0 z m 3.35977,-1.98286 0.18436,-0.15505 z m 0.54694,-0.47837 c -0.87197,-0.99658 1.02135,-0.29534 0,0 z m 0.31905,-0.29301 0.35253,-0.27081 z m -26.660276,-0.27348 0.124132,0.11461 z m -0.65909,-0.58601 c 1.097591,0.25346 -0.289793,1.64871 0,0 z m -0.546941,-0.54694 c 1.097674,0.25346 -0.289987,1.6487 0,0 z m 29.422487,-0.0977 c -0.87192,-0.9966 1.0213,-0.29543 0,0 z m 0.31253,-0.38111 0.18436,-0.15505 z m -30.404208,-0.2635 0.124132,0.1146 z m 13.590688,-0.85425 0.14106,0.0143 z m 17.75114,-0.1324 0.18436,-0.15505 z m -19.76182,-0.25048 c 0.15231,0.40493 -0.53225,-0.21334 0,0 z m 20.0333,-0.099 c -1.32464,0.41938 0.1725,-1.23105 0,0 z m -1.44941,-1.54555 c 1.14149,0.43357 -0.9843,1.21063 0,0 z m -0.58377,-0.51713 0.20412,0.19095 z m -0.85948,-0.78135 0.20418,0.19101 z m -1.05381,-0.97668 0.19895,0.15826 z m -0.93494,-0.81462 c 1.34531,0.18424 -0.9368,1.18883 0,0 z m -30.778748,-1.75079 c 0.151519,0.40521 -0.531745,-0.214 0,0 z m 13.702648,-0.27422 c -1.149963,-0.65385 0.234012,-0.4993 0,0 z M 85.936807,169.2025 c 0.151454,0.40524 -0.531747,-0.21412 0,0 z m -0.07197,-0.34509 c 0.05936,-0.39325 0.06401,0.38924 0,0 z m -0.07813,-0.39067 c 0.05855,-0.39392 0.06478,0.38854 0,0 z m 13.435797,-0.39835 c -1.41689,0.47763 0.09886,-1.26717 0,0 z m -13.5201,-0.0379 c 0.151454,0.40524 -0.531747,-0.21412 0,0 z m -0.06618,-0.50137 c 0.06054,-0.51457 0.05852,0.51689 0,0 z m 15.179406,0.0781 0.2276,-0.45533 z m -1.875635,-0.46881 c -1.408268,0.30467 0.281592,-1.08467 0,0 z m -13.380329,-0.42973 c 0.348401,0.75674 -0.970334,-0.14463 0,0 z m 13.275465,-0.11721 c 0.05855,-0.39392 0.06479,0.38854 0,0 z M 85.486044,165.8496 c 0.481354,0.95857 -1.375781,0.3894 0,0 z m 13.273853,0.2344 c 0.222936,0.62589 -0.7681,-0.24313 0,0 z m 3.419413,-0.60554 c -0.32199,-1.52383 1.17409,-0.1815 0,0 z m -3.489364,-0.293 c 0.05644,-0.78117 0.05644,0.78117 0,0 z m 19.750734,0.11069 c 0.15231,0.40493 -0.53225,-0.21334 0,0 z m -15.43769,-0.5795 c -0.78668,-0.63805 0.85965,-0.22852 0,0 z m 15.52199,0 c 0.0596,-0.39309 0.0638,0.38943 0,0 z m -15.13132,-0.31254 c -0.7867,-0.63808 0.85967,-0.22852 0,0 z m 0.27347,-0.18577 0.18437,-0.15505 z m 14.94335,-0.24397 c 0.34795,0.75695 -0.96979,-0.14513 0,0 z m -19.920534,-0.42974 c 0.05755,-0.77917 0.05532,0.78316 0,0 z m -10.95605,0.11069 c 0.15131,0.40528 -0.531738,-0.21428 0,0 z m -2.246423,-0.46229 c 0.539517,0.96791 -1.402222,0.59734 0,0 z m 13.26953,-0.42974 c 0.05936,-0.39325 0.06401,0.38924 0,0 z m 8.020847,0.0248 0.14106,0.0143 z m 10.17828,-0.0703 c 0.15236,0.40492 -0.53226,-0.21323 0,0 z m -9.6738,-0.009 0.23058,0.005 z m 0.42825,-0.0757 0.1906,0.004 z m 0.5274,-0.10528 0.50778,-0.0337 z m -9.402843,-0.23365 c 0.05935,-0.39325 0.06399,0.38924 0,0 z m 10.439043,0.10101 0.24087,0.003 z m 0.62416,-0.0746 0.1906,0.004 z m 0.39067,-0.0781 0.1906,0.004 z m 0.55182,-0.0798 0.14106,0.0143 z m -25.288525,-0.18103 c 0.05855,-0.39392 0.06479,0.38854 0,0 z m 25.987765,0.10101 0.24087,0.003 z m -12.623903,-0.21821 c 0.222779,0.626 -0.7681,-0.24336 0,0 z m 13.482473,0.14359 0.1906,0.004 z m 0.62995,-0.0798 0.14106,0.0143 z m 0.39068,-0.0781 0.14106,0.0143 z m 0.39067,-0.0781 0.14106,0.0143 z m 0.39067,-0.0781 0.14106,0.0143 z m 0.44439,-0.14479 c -0.91916,-1.27098 1.21444,0 0,0 z m -29.02073,-0.15995 c 0.151454,0.40524 -0.531747,-0.21412 0,0 z m 13.367135,-0.0326 c 0.05935,-0.39325 0.06399,0.38924 0,0 z m 19.617505,-0.0781 c 0.0585,-0.51668 0.0603,0.51465 0,0 z m -3.1435,0 c -0.74489,-0.53602 0.75841,-0.0918 0,0 z m -16.402039,-0.35812 c 0.151454,0.40524 -0.531747,-0.21412 0,0 z m 19.461609,-0.42323 c 0.0596,-0.39309 0.0638,0.38943 0,0 z m -19.304821,-0.0781 c -0.600965,-0.27844 0.598804,-0.12573 0,0 z m 17.729801,0.0486 0.18436,-0.15506 z m 0.81496,-0.75185 c -0.66654,-1.51369 1.32204,-0.25786 0,0 z m 0.67576,0.18883 c 0.15237,0.40494 -0.53229,-0.21323 0,0 z m -18.91467,-0.26235 c -0.723595,0.0567 0.318746,-0.42742 0,0 z m 14.16267,-0.91013 c 0.0739,-0.59776 1.88575,2.63465 0,0 z m 1.22979,0.32908 0.18436,-0.15506 z m 0.74227,-0.67371 c -0.55405,-1.662 1.31354,-0.28414 0,0 z m -3.37518,-0.65395 c -1.33599,0.75179 -0.26777,-1.23659 0,0 z m 4.03933,0.0679 c -0.87171,-0.9969 1.02132,-0.29536 0,0 z m -15.705,0.0877 0.18436,-0.15506 z m 16.01753,-0.31253 0.18436,-0.15506 z m -15.35339,-0.43931 c -0.55324,-1.66227 1.31323,-0.28422 0,0 z m 10.8208,0.13674 c -1.58368,0.64151 -0.30003,-1.31498 0,0 z m 5.0014,-0.0977 c -0.87192,-0.9966 1.0213,-0.29543 0,0 z m 0.58601,-0.50787 c -0.78668,-0.63805 0.85965,-0.22852 0,0 z m 0.27347,-0.18577 0.18436,-0.15506 z m 0.43307,-0.27764 c -0.35994,-0.46749 0.39165,0.14886 0,0 z m -15.513,-0.27337 0.21353,-0.11354 z m 7.03209,-0.1227 c 0.79969,0.15478 -0.83191,0.52662 0,0 z m 9.02452,-0.23441 c -0.55326,-1.66227 1.31324,-0.28421 0,0 z m -10.54814,-0.2344 c 1.3975,-0.32621 -0.46593,1.51067 0,0 z m -3.64789,-0.13151 0.14106,0.0143 z m 3.04235,0.002 0.1906,0.004 z m 11.62417,-0.0354 c 0.15693,-1.25586 1.03736,0.88258 0,0 z m -14.06587,-0.0668 c 0.30788,-1.48826 0.85537,1.08523 0,0 z m 1.41001,-0.008 0.52578,0.0342 z m -18.63862,-0.6974 c -0.854306,-0.35907 0.659795,-0.41522 0,0 z m 32.50387,-0.2734 c -0.87182,-0.99677 1.0213,-0.2954 0,0 z m 0.54694,-0.46881 c -0.87182,-0.99677 1.0213,-0.2954 0,0 z m 0.39852,-0.32851 c -0.74604,-0.41691 0.70176,-0.26619 0,0 z m -0.0562,-0.35516 c -0.96605,0.87283 0.002,-1.1065 0,0 z m -32.142982,-0.47901 0.184364,-0.15506 z m 0.429739,-0.51744 c -0.786727,-0.638 0.859655,-0.2285 0,0 z m 30.814023,-0.37114 c 0.84386,0.20498 -0.80592,0.55352 0,0 z m -30.540554,0.0341 0.323754,-0.30471 z m 30.269624,-0.38576 0.30905,0.32675 z m -0.89112,-0.95714 c 0.66517,0.65422 0.52983,0.52111 0,0 z m -28.59716,0.47837 0.18437,-0.15505 z m 0.468806,-0.47837 c -0.871842,-0.99654 1.021256,-0.29535 0,0 z m 0.390672,-0.29792 0.323754,-0.30471 z m 0.703209,-0.63969 c -0.871842,-0.99654 1.021256,-0.29535 0,0 z m 26.050373,0.0195 0.15215,0.14151 z m -0.43229,-0.35161 0.12415,0.11465 z m -25.227411,0.0291 0.184363,-0.15506 z m 24.807641,-0.32895 0.3386,0.27192 z m -24.495104,0.0945 0.18437,-0.15505 z m 0.312537,-0.23223 c -0.122952,-0.90604 0.62889,0.64972 0,0 z m 23.459827,-0.3308 c 1.52705,-0.003 -0.15643,1.63324 0,0 z m -22.991021,0.0172 0.361982,-0.25702 z m 0.54694,-0.3973 0.372006,-0.19176 z m 9.830271,-0.72153 0.14106,0.0143 z m 9.93771,-0.41543 c 0.92539,-0.19837 0.18752,1.2327 0,0 z m -16.720744,-0.41069 c 0.923825,-1.48021 1.132691,0.54408 0,0 z m 14.532984,-0.44879 c 0.88248,0.0395 -0.821,0.66964 0,0 z m -0.74228,-0.2344 c 1.01663,-0.11733 -0.80968,0.85469 0,0 z m -0.36625,-0.13151 0.14106,0.0143 z m -0.57136,-0.1029 c 0.88634,-0.3363 -0.54304,0.95209 0,0 z m -9.42983,-0.13151 0.14106,0.0143 z m 8.94298,-7.7e-4 0.23058,0.005 z m -1.03677,-0.14119 c 1.33559,-0.7139 -3.5e-4,1.62699 0,0 z m -7.12487,-0.0143 0.14106,0.0143 z m 0.38579,-0.0765 0.1906,0.004 z m 0.55182,-0.0798 0.14106,0.0143 z m 5.23103,-0.002 0.24087,0.003 z m -4.64842,-0.077 0.23058,0.005 z m 3.94521,-10e-4 0.24087,0.003 z m -2.41937,-0.0811 c 0.44432,-1.27701 0.68263,1.07711 0,0 z m -3.75578,45.01635 c 0.15805,-0.45141 -0.33396,0.22585 0,0 z m -20.709191,-24.42334 -0.01443,0.14115 z m 0.03446,-0.47499 c 0.176949,0.63821 0.409582,-0.68144 0,0 z m -0.126897,-0.36984 c -0.309705,-0.23431 0.176304,0.50011 0,0 z m 0.244741,-0.42323 0.222222,0.35439 z m 8.037495,25.69283 0.338654,0.27202 z m 1.201116,-1.34097 0.124141,0.11463 z m 33.451446,-0.11934 0.41045,-0.30873 z m -0.46881,-0.13034 c 0.6615,-1.16308 0.57579,1.36805 0,0 z m 0.7993,-0.48784 c -1.105,-1.09694 1.26986,-0.005 0,0 z m 1.11011,-0.54462 c -0.33199,-1.2624 1.19178,0.14461 0,0 z m -36.803795,-0.24147 0.152144,0.1415 z m 37.277485,-0.52741 c -0.28738,-0.58507 0.40586,0.20884 0,0 z m -43.463605,-3.20351 c 0.670853,0.49678 -1.117302,0.50509 0,0 z m 47.802025,-1.275 c -2.04393,-0.72273 1.06922,-0.98954 0,0 z m 0.77355,-0.38535 c -0.95398,-1.17141 1.228,-0.44079 0,0 z m -50.202886,0.15626 0.152242,0.14163 z m -0.354147,-0.42973 0.127473,0.1199 z m 51.109803,-0.48834 c -0.8769,-1.10333 1.00513,-0.44984 0,0 z m 0.28138,-0.41021 c -0.3656,-1.07949 1.14507,0.28867 0,0 z m -52.177856,-0.2344 c -2.203122,2.01197 -0.655988,-1.56621 0,0 z m -0.609778,-0.99621 c 0.69369,0.59742 -1.098506,0.56395 0,0 z m 53.830444,-0.42974 c -1.23101,-1.07852 1.22307,-0.58262 0,0 z m -0.78729,0.2344 0.15346,-0.19873 z m -53.457686,-0.62899 c -1.539811,-0.84311 0.320797,-0.83125 0,0 z m 51.324056,0.17635 c -0.65033,-0.17259 0.4619,-0.31325 0,0 z m 2.93744,-0.96583 0.38708,-0.74307 z m -0.0617,0.65666 c -1.7951,-0.006 0.58677,-1.18809 0,0 z m -2.60731,-0.15201 c -0.0185,-0.66291 0.37938,0.48791 0,0 z m 3.31181,-0.51401 c -0.25051,-1.01994 1.24958,-0.60118 0,0 z m -0.49778,0.23628 c -1.18468,-0.16195 0.88015,-0.50776 0,0 z m -54.798411,-0.29663 c -1.521684,0.36874 0.0729,-1.23227 0,0 z m 0.464583,-0.34631 c -1.661157,0.15816 0.186359,-1.29597 0,0 z m -0.739363,-0.27848 c -1.120997,0.67574 -0.0125,-1.02989 0,0 z m 0.468804,-0.39067 c -1.121013,0.67577 -0.01245,-1.02992 0,0 z m 54.999397,0.003 0.1194,-0.21229 z m 0.27365,-0.66414 c -1.43547,0.23007 0.54752,-1.00672 0,0 z m -56.258944,-0.35145 c -1.585882,0.16377 0.351994,-1.35721 0,0 z m 0.709389,0.30936 c -0.776248,0.63803 0.07868,-0.85731 0,0 z m -0.235269,-0.70987 c -1.345894,-0.0593 0.375393,-1.17717 0,0 z m 55.990424,0.20502 0.0887,-0.21544 z M 76.404421,174.7504 c 0.151454,0.40524 -0.531747,-0.21412 0,0 z m -0.07813,-0.31254 c 0.151576,0.40525 -0.531773,-0.21397 0,0 z m 57.663639,0.0456 c -0.60092,-0.27836 0.59878,-0.12581 0,0 z m -57.190974,-0.34414 c -1.994788,0.0958 0.455101,-1.63522 0,0 z m -0.5508,-0.014 c 0.151576,0.40525 -0.531773,-0.21397 0,0 z m 57.272964,-0.0716 c -0.74803,-0.22117 0.65047,-0.27405 0,0 z m -57.351098,-0.31905 c 0.151454,0.40524 -0.531747,-0.21412 0,0 z m 2.578433,0 c 0.151572,0.40526 -0.531775,-0.21397 0,0 z m 0.192504,-0.0272 c -0.550659,-0.24785 0.307048,-0.13698 0,0 z m 54.741631,-0.16166 c -0.78871,-0.44982 0.85739,-0.15702 0,0 z m 0.61936,-0.0456 c 0.15231,0.40493 -0.53225,-0.21334 0,0 z m -55.63163,-0.0781 c 0.15131,0.40528 -0.531738,-0.21428 0,0 z m -2.022429,-0.14975 c 0.222936,0.62589 -0.7681,-0.24313 0,0 z m -0.556004,-0.007 c 0.151468,0.40524 -0.531758,-0.21412 0,0 z m 2.500298,-0.15626 c 0.151454,0.40524 -0.531747,-0.21412 0,0 z m 55.866025,-0.15627 c 0.15231,0.40493 -0.53225,-0.21334 0,0 z m -58.438287,-0.11069 c 0.05855,-0.39392 0.06478,0.38854 0,0 z m 0.504835,-0.36851 c -0.42067,-3.8389 -0.180714,-20.21727 -0.198489,-8.70772 0.08173,2.90202 0.255588,5.80334 0.198489,8.70772 z m 1.989292,0.32293 c 0.151454,0.40524 -0.531747,-0.21412 0,0 z m 55.40204,-0.0326 c -0.70771,-0.25039 0.65922,-0.20649 0,0 z m 0.66938,-0.27347 c -1.10015,-0.29282 0.97587,-0.45573 0,0 z m -58.633671,-0.2344 c 0.409583,0.87906 -1.245557,0.0733 0,0 z m 2.484119,0.22789 c 0.151595,0.40519 -0.531738,-0.21395 0,0 z m 55.631622,-0.31254 c 0.15245,0.40493 -0.53233,-0.21313 0,0 z m -55.703589,-0.11069 c 0.05855,-0.39392 0.06479,0.38854 0,0 z m 55.787899,-0.2344 c 0.0597,-0.39311 0.0639,0.38943 0,0 z m -58.268906,-1.21108 0.01363,0.45502 z m 2.402872,1.05481 c 0.05936,-0.39325 0.06401,0.38924 0,0 z m 55.944164,-0.2344 c 0.0593,-0.39334 0.064,0.38918 0,0 z m -55.825555,-0.0314 0.157842,-0.11073 z M 78.21347,171.2018 c 0.05852,-0.51689 0.06054,0.51457 0,0 z m 56.09754,-0.19534 c 0.2231,0.62597 -0.76796,-0.24306 0,0 z m -56.178569,-0.39067 c 0.222849,0.62595 -0.768069,-0.24322 0,0 z m 56.256699,-0.0781 c 0.22306,0.626 -0.76796,-0.24316 0,0 z m -56.330362,-0.54695 c 0.348361,0.75679 -0.970288,-0.1447 0,0 z m 56.408502,0.0781 c 0.2231,0.62597 -0.76796,-0.24306 0,0 z m 0.081,-0.50787 c 0.0585,-0.51668 0.0603,0.51465 0,0 z m -56.55543,-0.1076 0.0063,-0.50901 z m -2.118154,-0.51748 c 0.05644,-0.78117 0.05644,0.78117 0,0 z m 58.757804,-0.1172 c 0.48156,0.95889 -1.37625,0.38863 0,0 z m -56.714881,-0.35844 c -0.872401,-2.58873 0.923137,-1.34435 0,0 z m -2.039036,-0.61824 c 0.05271,-1.19048 0.05271,1.19048 0,0 z m 58.835567,-0.3516 c -1.25004,-0.71789 0.58671,-0.90689 0,0 z m -58.85053,-0.50788 c 0.05857,-0.39393 0.06479,0.38854 0,0 z m -0.0062,-0.35811 c 0.151454,0.40524 -0.531747,-0.21412 0,0 z m 58.79826,1.2e-4 c -1.04185,-0.90315 0.71243,-0.92106 0,0 z m -58.810407,-0.75542 c -0.05319,-1.35408 -0.03939,-1.00275 0,0 z m 58.411377,-2.3245 c -1.69099,-0.08 0.47346,-1.17237 0,0 z m -0.14846,-0.78915 c -1.69105,-0.0794 0.47347,-1.1725 0,0 z m -58.458045,-2.06275 c 0.02151,0.87216 0.01344,0.5448 0,0 z m 58.339205,1.47804 c 0.15245,0.40493 -0.53233,-0.21313 0,0 z m -0.11903,-0.46663 c -1.56281,0.091 0.3949,-1.10462 0,0 z m 0.47189,-0.484 c -1.34534,-1.53346 0.49175,-1.46942 0,0 z M 77.905141,161.0834 c 0.409617,0.8792 -1.245663,0.0728 0,0 z m 55.739509,-0.36462 c -1.32199,-0.88115 0.3157,-1.19833 0,0 z m -55.660308,-0.61206 c 0.05644,-0.78117 0.05644,0.78117 0,0 z m 55.458118,-0.20184 c 0.15237,0.40494 -0.53229,-0.21323 0,0 z m -0.11779,-0.38974 c -1.22858,0.39622 0.18146,-0.97236 0,0 z m -55.272676,-0.18976 c -0.784381,-1.00322 1.286941,-0.45217 0,0 z m 55.156056,-0.27998 c 0.15236,0.40492 -0.53226,-0.21323 0,0 z m -57.487378,-0.61856 c 0.539325,0.9676 -1.401868,0.59815 0,0 z m 57.403078,0.31253 c -0.52923,-0.5244 0.40229,-0.0809 0,0 z m -0.18656,-0.71005 c -1.10302,-0.73127 0.5325,-0.96361 0,0 z m -57.141664,-0.54009 c 0.409593,0.87911 -1.245605,0.0732 0,0 z m 2.946757,0.005 c -0.913021,-0.1504 0.410476,-0.42723 0,0 z m -0.271503,-0.37704 c -1.267219,-0.58329 0.994998,-0.74201 0,0 z m -2.604235,-0.33078 c 0.222849,0.62595 -0.768069,-0.24322 0,0 z m 0.08103,-0.50787 c 0.05852,-0.51689 0.06054,0.51457 0,0 z m 3.029111,-0.0698 c -0.219483,-0.59427 0.428666,0.32339 0,0 z m -2.953871,-0.4381 c 0.222936,0.62589 -0.7681,-0.24313 0,0 z m 2.80579,-0.0781 c -0.634717,-0.92519 1.154009,0.035 0,0 z m 0.330929,-0.34797 c -1.64474,-0.0913 0.562432,-1.03493 0,0 z m 53.071266,0.0299 c -1.22862,0.39612 0.18154,-0.97237 0,0 z m -56.09645,-0.18975 c -0.414998,-1.27427 1.639103,-0.80266 0,0 z m 0.536162,0.0781 c -0.721838,-1.14902 1.383887,0.10814 0,0 z m 55.933268,0.0357 c -0.7844,0.13695 0.17792,-0.55712 0,0 z m -0.76142,-1.17646 c -1.45146,-0.67116 0.25419,-1.2398 0,0 z m -52.47261,-0.22659 c -0.467156,-0.32775 0.536469,-0.0154 0,0 z m -2.252961,-0.60554 c 1.36553,-9.59778 18.802503,-16.68677 21.039429,-16.68445 -8.42682,3.44311 -17.751464,7.38561 -21.039429,16.68445 z m 1.742144,-3.41748 c -0.387133,-0.28472 0.161454,0.50636 0,0 z m 5.11835,-6.0751 -0.539473,0.44051 z m 0.276683,-0.1036 c -0.556961,0.0526 0.619882,0.6366 0,0 z m 3.361161,-2.37541 0.357545,-0.21723 z m 0.97208,-0.51947 c -0.566835,-0.42144 0.27811,0.7492 0,0 z m 1.211081,-0.61596 c -0.309688,-0.2343 0.17629,0.50008 0,0 z m 6.797132,-2.89008 c -0.387133,-0.28472 0.161454,0.50636 0,0 z m 1.65928,-0.67317 c 0.158439,-0.45131 -0.334032,0.22557 0,0 z m 0.06023,-0.1872 c 0.66909,-0.32214 -0.573224,-0.18698 0,0 z m -18.59452,16.58759 c -1.314858,-1.08619 1.061606,-0.71217 0,0 z m 51.60678,-0.43188 c -1.82767,0.10692 0.621,-1.29511 0,0 z m -51.32821,-0.17767 0.199608,-0.36781 z m 50.78521,-1.19001 c -1.75102,-0.0359 0.88034,-1.76707 0,0 z m -0.31699,-1.43211 c 0.32299,-0.29499 -0.11451,0.45899 0,0 z m -0.90898,-0.96927 c 1.50915,0.57594 -1.44994,1.15046 0,0 z m -0.33359,-0.55443 c 1.18592,0.4952 -0.97412,0.97529 0,0 z m -1.48992,-2.12446 c -3.05323,-0.67159 0.58908,-1.1942 0,0 z m -0.86326,-1.62318 c 0.86466,0.47029 -1.28977,0.73771 0,0 z m -0.36162,-0.25283 c -0.61744,1.5893 -0.97347,-1.03763 0,0 z m -1.79293,-1.36657 0.15217,0.14154 z m -0.46138,-0.33711 c -1.44775,0.43285 -0.19067,-1.38656 0,0 z m -0.39012,-0.65821 c 0.38632,-0.28523 -0.16054,0.50609 0,0 z m -1.95851,-0.90374 c 0.95659,0.0463 -0.67089,0.88383 0,0 z m -0.39067,-0.23441 c 0.95644,0.0456 -0.67073,0.8839 0,0 z m -0.34701,-0.19102 c 0.58834,0.24934 -0.73822,0.31028 0,0 z m -0.92888,-0.40132 c -1.6945,0.49508 -0.85649,-1.62985 0,0 z m -4.14985,-2.1925 c -3.07578,-0.7968 -4.67483,-1.76806 0,0 z m -1.44548,0.13304 c -2.63252,1.09455 -2.00842,-2.43288 0,0 z m -13.18517,-0.1694 0.1906,0.004 z m 0.50788,-0.0803 0.23981,0.002 h 5.3e-4 l -0.23981,-0.002 z m 0.62656,-0.0784 0.23058,0.005 z m 0.77985,-0.0799 0.44034,4.8e-4 z m 4.65388,-1.63823 0.14106,0.0143 z m -0.31254,-0.0781 0.14106,0.0143 z m -0.31254,-0.0781 0.14106,0.0143 z m -0.31253,-0.0781 0.14106,0.0143 z m -5.27747,-0.0789 0.23058,0.005 z m 4.8868,7.7e-4 0.14106,0.0143 z m -4.16554,-0.11408 c 1.33847,-0.0782 1.03486,-0.0605 0,0 z m 3.65427,0.0352 0.23058,0.005 z m -0.66472,-0.0793 0.24087,0.003 z m -3.28255,-0.46529 0.1906,0.004 z m 0.586,-0.0803 0.23981,0.002 h 5.3e-4 l -0.23981,-0.002 z m 32.44578,34.26418 c -0.84711,0.78588 1.16905,0.73239 0,0 z m -58.57726,-18.62465 -0.117724,0.18411 z m 0.700394,-0.98926 c 0.624805,-0.54656 -0.525697,-0.008 0,0 z m 0.493118,-0.3809 c 2.3067,-0.13391 -1.239955,-1.77164 0,0 z m 0.227995,-0.46393 c -0.30972,-0.23417 0.176471,0.50008 0,0 z m 10.469999,-9.4887 c 0.114681,-0.45906 -0.3231,0.29492 0,0 z m 6.328879,-3.16905 c 0.167285,-0.50435 -0.295518,0.22852 0,0 z m 2.226827,-0.54694 c -0.424053,-0.21535 0.291015,0.57229 0,0 z m 0.237615,-0.15108 c 0.693558,-0.38486 -0.539525,-0.2434 0,0 z m -0.657658,-0.26043 c 0.176949,0.63821 0.409582,-0.68144 0,0 z m 3.975151,-0.45638 c -0.33212,-0.52121 -0.0241,0.6873 0,0 z m 0.57064,-0.06 c -0.23844,-0.56261 -0.12118,0.637 0,0 z m 6.3339,0.007 c -0.16078,-0.52359 -0.16078,0.52359 0,0 z m 0.36196,-0.0903 c 0.34673,-0.50387 -0.39898,0.15815 0,0 z m 0.2868,-0.13452 c -0.50804,-0.29141 0.27639,0.4951 0,0 z m -4.38941,-0.1036 c -0.38658,-0.28503 0.16093,0.50614 0,0 z m 3.64349,-0.0999 c 0.17688,0.63828 0.40959,-0.68149 0,0 z m 24.36576,49.92912 c -1.28664,0.47066 1.62191,0.69706 0,0 z m 0.70824,-1.03528 c -0.87043,0.35714 0.91373,0.54928 0,0 z m -59.331279,-26.69742 -0.01443,0.14115 z m 0.259162,-0.14162 c 0.855314,-0.44535 -0.842901,-0.15127 0,0 z m 10.600222,46.67223 c -0.770795,0.66455 -0.03221,-0.74408 0,0 z m 43.141535,-0.86077 0.14107,0.0143 z m -46.128261,-1.70216 c 0.878221,0.54553 -1.255498,0.61896 0,0 z m -5.039885,-3.09177 c 0.894386,-0.17809 -0.699622,0.9644 0,0 z m 57.042866,-0.36709 c -0.65717,-0.7421 0.90145,0.10869 0,0 z m -57.724799,-0.14077 c 0.767201,0.40166 -1.035872,0.36019 0,0 z m -2.985406,-2.73151 c 1.185125,0.48229 -0.974692,1.15788 0,0 z m 65.439585,-0.66072 c -0.68031,-1.04489 0.91006,0.33449 0,0 z m -67.350692,-3.27989 c -0.550485,-0.24819 0.307159,-0.13667 0,0 z m -0.551738,-1.02397 c 1.173725,0.84527 -1.472838,1.23888 0,0 z m 72.83893,-4.6657 c -1.27763,-0.90328 1.28424,-0.22554 0,0 z m 0.5707,-1.03301 c 0.69902,-0.0637 -0.56253,0.63195 0,0 z m -78.937912,-4.72939 c -1.449453,-0.21046 0.804456,-1.02233 0,0 z m 81.359092,0.42513 c 0.32363,-0.29446 -0.11527,0.45927 0,0 z M 62.800948,173.3454 c -1.458778,0.51059 0.125635,-1.13667 0,0 z m -0.180378,-0.55487 c -0.67144,0.59569 0.08561,-0.64817 0,0 z m -0.09437,-0.42192 -0.04962,-0.13786 z m 84.13433,-17.08437 c -1.22833,-0.11547 0.9824,-0.52536 0,0 z m -2.59797,-6.66136 c -0.1407,-0.57791 0.39072,0.34906 0,0 z m 0,-0.23169 c -0.72351,0.0571 0.31844,-0.4275 0,0 z m -72.687542,-9.38073 c -0.705914,-0.5363 0.449347,-0.25446 0,0 z m 64.250612,-3.70949 c 0.58768,0.35995 -0.83822,0.35503 0,0 z m -61.610473,-0.27536 c -0.167285,-0.50435 0.295518,0.22852 0,0 z m 0.670309,-0.59252 c 0.1513,0.40524 -0.531693,-0.21428 0,0 z m 0.501706,-0.50136 c -0.440627,-1.20471 0.959869,0.59524 0,0 z m 58.932798,-0.0953 c 0.71318,-0.56807 1.00903,2.68074 0,0 z m -5.16337,-4.01978 c -0.61147,0.41592 0.0389,-0.44905 0,0 z m -0.56531,-0.53948 c -1.25126,2.02493 -0.93254,-1.288 0,0 z m -6.51887,-2.69469 c 0.32313,-0.2948 -0.1147,0.45913 0,0 z m -2.03149,-1.36274 c 0.77611,-0.1269 -0.74,0.79901 0,0 z m -29.964508,-0.1172 c -0.773571,-0.81442 0.945641,0.0917 0,0 z m 9.856962,-0.87901 c 0.387226,-1.22223 0.568806,1.09826 0,0 z M 96.63504,123.9198 c 1.038726,-0.85423 1.230824,1.19304 0,0 z"
       id="path2" /><path
       style="display:inline;fill:#2a0a03;stroke-width:0.221483"
       d="m 100.16133,209.42669 c -4.417442,-0.5344 -8.011792,-3.81351 -12.606442,-3.57024 -4.4994,-1.96501 -7.72933,-5.94393 -12.19675,-8.04277 -4.39189,-2.12808 -4.41466,-7.39252 -7.43998,-10.64859 -3.72089,-3.29371 -4.25285,-8.30867 -5.11992,-12.89311 -0.97545,-4.47134 -0.265,-9.47848 -0.15659,-14.18873 -0.54767,-5.63729 1.64356,-11.35573 4.71611,-15.97588 2.98882,-2.54502 4.43523,-6.25359 7.15503,-8.949 3.56895,-2.48536 7.58459,-4.28738 10.85397,-7.2237 4.06486,-3.22303 9.39756,-3.31097 14.32734,-3.3772 4.714152,-1.72242 9.759172,-1.88563 14.596732,-0.4058 4.85714,-0.0427 8.17528,4.27205 12.80497,5.0303 3.82975,2.41246 7.36772,5.43566 10.25314,8.98134 4.5302,3.30359 6.91067,8.22643 7.79292,13.70342 3.2728,4.26656 2.16893,9.72433 2.02356,14.68756 0.0249,6.25607 0.22095,13.12588 -3.96377,18.27031 -2.9534,3.65429 -3.21177,9.16098 -7.74571,11.51476 -5.02516,2.16195 -7.64113,8.30384 -13.46858,8.91157 -4.52608,0.98545 -8.55468,3.95464 -13.38858,2.95755 -2.80647,0.42005 -5.55565,1.56303 -8.43745,1.21821 z m -2.280772,-0.83024 c -1.04802,-0.9398 -0.89922,0.80366 0,0 z m -4.98572,-2.02037 c -0.2998,-0.30314 -0.17114,0.15954 0,0 z m 11.837352,-0.66113 c 8.89628,-1.73577 18.73118,-2.77461 25.57672,-9.38521 1.48522,-1.42705 0.98401,-0.9879 -0.19278,-0.0512 6.59542,-7.02319 13.78985,-15.16253 13.7281,-25.39661 -0.0752,-6.48014 0.6356,-13.20338 -1.88201,-19.36643 -1.11974,-5.40478 -5.05389,-9.33284 -8.49666,-13.30629 -3.85474,-4.74143 -9.94371,-6.54594 -15.13507,-9.37829 -4.98545,-2.49696 -10.7138,-3.19964 -16.13551,-1.87078 -5.156412,0.82649 -10.852812,0.29497 -15.269232,3.60168 -4.00332,3.00685 -8.39846,5.54883 -11.99247,9.05902 -5.40874,5.86726 -9.60702,13.61288 -9.11996,21.80729 0.10245,6.57089 -0.51328,13.41711 2.34488,19.56508 2.29394,4.52241 4.75724,9.07258 8.17741,12.86414 5.49099,5.7704 13.18692,8.82293 20.67698,11.06126 2.51507,0.76406 5.095102,1.1411 7.719602,0.79634 z m -2.6175,-2.4232 c -13.689062,-0.86524 -27.765382,-9.36897 -31.807972,-23.01402 -2.31143,-7.94697 -3.26555,-16.41949 -2.19388,-24.64364 2.11107,-9.64202 9.96572,-16.58509 17.56721,-22.2083 9.93402,-6.3922 22.764032,-5.78556 33.461222,-1.73165 9.10495,2.88242 16.74262,9.90073 20.09383,18.87032 2.99907,8.01827 3.68417,16.94358 2.07185,25.33571 -2.3241,9.64548 -10.27272,16.30048 -17.79899,22.06273 -5.6569,4.18822 -12.9795,4.99106 -19.79568,5.36991 l -0.79844,-0.01 z m 4.64899,-0.96882 c 7.1154,-0.77694 14.64571,-2.5589 19.77534,-7.91444 7.1964,-5.72172 14.17486,-13.34038 14.51685,-23.04607 0.91868,-11.78155 -1.98663,-24.92492 -11.37715,-32.84761 -5.72821,-4.97424 -13.28437,-7.08522 -20.58579,-8.48586 -9.471462,-1.60884 -19.849512,0.53923 -26.944562,7.30758 -7.03206,5.56228 -13.54254,13.29624 -13.54233,22.73783 -0.20683,7.23828 0.83651,14.57073 3.02126,21.46943 5.27099,13.83542 20.79796,21.83388 35.136382,20.77914 z m -4.53179,-1.10499 c -9.747362,-0.82296 -18.477122,-6.50361 -25.183712,-13.32436 -7.53906,-9.03217 -8.00263,-21.76587 -5.88435,-32.8228 1.79863,-8.25064 7.88069,-14.93707 15.30876,-18.667 7.3342,-4.48055 16.514292,-7.86112 24.977552,-4.54172 7.72097,2.20001 16.42638,4.51029 20.90844,11.83858 3.54024,5.67414 5.99683,12.06481 7.49624,18.56882 1.9992,11.70867 -3.95949,23.72973 -13.41758,30.55713 -6.45169,5.42197 -14.71615,9.06056 -23.27631,8.40695 l -0.92904,-0.016 z m 4.25832,-0.85051 c 10.85168,-0.61935 20.32579,-7.56888 26.9142,-15.81646 6.1111,-8.16201 7.76233,-19.52586 3.54706,-28.91155 -2.68794,-7.90811 -6.91663,-16.47835 -15.2903,-19.53991 -5.10498,-1.7377 -10.20745,-3.79166 -15.5557,-4.60371 -9.058002,-0.74276 -17.393062,4.07526 -24.501182,9.14302 -5.65338,4.15363 -9.43642,10.62002 -9.99584,17.64543 -1.79553,10.93023 -0.20515,23.60788 8.44481,31.38573 7.19404,6.33085 16.57552,11.41147 26.436952,10.69745 z m -3.28164,-1.52539 C 93.007878,197.834 83.285628,192.27342 77.106518,184.08385 c -5.7228,-9.23372 -5.21102,-20.86214 -2.74181,-31.04564 3.13427,-9.59205 12.78516,-14.69085 21.48921,-18.36791 5.733302,-2.25761 12.216342,-1.84683 17.805962,0.62026 6.11173,1.73718 12.81316,3.81705 16.34281,9.57326 4.2118,6.12621 6.68796,13.4213 7.70851,20.74689 0.77142,10.9887 -5.8732,21.36464 -14.93808,27.13076 -5.62529,4.16227 -12.46149,6.95385 -19.56455,6.30057 z m 3.20357,-0.69865 c 9.00663,-0.53702 16.76006,-6.18848 23.04287,-12.23553 6.93871,-7.52655 9.62633,-19.03941 5.59336,-28.62073 -2.51292,-7.69723 -6.37177,-16.44311 -14.73046,-19.13381 -5.32272,-1.60758 -10.54686,-4.08775 -16.15136,-4.40396 -7.884392,0.13478 -14.967982,4.4061 -21.270702,8.75529 -5.2365,3.93796 -8.66528,10.08882 -9.01762,16.65957 -1.41614,10.07843 -0.25302,21.96325 8.07618,28.90575 6.64602,6.01621 15.3444,10.26607 24.457732,10.07342 z m -2.34409,-2.19602 c -2.27751,0.0979 -5.994942,-1.45412 -1.6196,-0.5118 2.44072,0.71072 8.63036,-0.6196 8.62163,0.006 -2.24989,0.73772 -4.67357,0.53013 -7.00203,0.50609 z m -3.71138,-0.85328 c -0.24662,-0.34034 -0.12014,0.32256 0,0 z m 11.79322,-0.07 c -0.17423,-1.07452 2.86482,-0.37743 0,0 z m -14.996732,-0.7359 c -3.29351,-0.91522 1.51331,-0.10606 0,0 z m 16.916082,-0.0418 c 0.37554,-0.37174 0.39432,0.0667 0,0 z m 0.39067,-0.11044 c 0.83,-1.441 7.29835,-3.91845 2.90005,-1.3004 -0.92738,0.51328 -1.89114,0.97081 -2.90005,1.3004 z m -11.79828,-0.72911 c -2.15751,0.44884 -6.017562,-1.73769 -1.57041,-0.66125 1.6017,0.32823 8.66062,-0.11663 3.38805,0.65646 -0.60599,-3.4e-4 -1.21187,-0.0439 -1.81764,0.005 z m -8.239842,-0.10452 c -0.0199,-0.37208 0.2201,0.25587 0,0 z m -0.46133,-0.1226 c 0.15316,-0.4343 0.22425,0.4395 0,0 z m -0.32335,-0.11721 c 0.12027,-0.32256 0.24661,0.3403 0,0 z m 15.527832,-0.35274 c 2.24488,-1.04968 0.94402,0.51166 0,0 z m 2.55102,-0.4872 c 1.04444,-1.69461 4.23802,-0.66198 0.66114,-0.13976 z m 0.27095,-0.21237 c -0.008,-0.55379 -0.2582,0.41475 0,0 z m 2.44756,-0.85463 c 2.64432,-2.36278 2.64016,-0.12456 0,0 z m 2.09545,-0.98313 c -0.22001,-0.1669 -0.25117,0.29341 0,0 z m -27.385532,0.66325 c -2.91849,-1.77569 -1.06076,-1.69972 0,0 z m 10.46119,-0.36806 c 1.479262,-0.60529 0.2175,0.41822 0,0 z m -6.86701,-0.0397 c -0.65961,-0.59394 1.31895,0.6395 0,0 z m 27.443052,-0.0367 c 2.74655,-2.11829 5.63664,-3.99869 8.00808,-6.83107 5.72315,-6.15794 7.95978,-15.39389 5.09987,-23.38104 -0.82563,-3.52241 -1.84978,-7.0287 -3.19524,-10.37872 -2.50742,-3.23613 -4.85499,-7.07245 -8.95673,-8.67155 -3.48657,-2.02383 -7.27823,-2.77635 -10.87882,-4.13003 -3.30089,-0.96267 -7.8305,-1.00592 -10.495202,-0.61933 4.942322,-2.19477 10.098532,0.50334 14.927692,1.7032 6.93538,1.79988 13.48636,6.14792 16.28164,12.97617 1.92345,5.03875 3.26292,10.35435 4.00526,15.69296 0.62444,9.83481 -6.08353,18.67804 -14.18871,23.49866 z m 2.19732,-1.51103 c -0.35995,-0.29866 0.0464,0.49922 0,0 z m 0.82585,-0.50185 c -0.86386,0.14661 -0.81759,0.70768 0,0 z m 0.31397,-0.15613 c 1.15654,-0.92089 -0.8393,0.38487 0,0 z m 1.52835,-1.25425 c -0.12014,-0.32258 -0.24662,0.34036 0,0 z m 4.04587,-4.10491 c -0.53859,-0.26719 0.30437,0.42741 0,0 z m 0.27587,-0.24064 c 0.68357,-1.07359 -0.6753,0.22482 0,0 z m 2.57082,-3.79995 c 0.41347,-1.24016 -0.43473,0.34345 0,0 z m 0.28928,-0.57766 c 0.0395,-0.56819 -0.37763,0.49687 0,0 z m 0.30181,-22.45553 c -0.23039,-0.4546 0.11073,0.5468 0,0 z m -2.05332,-5.42263 c -0.14373,-0.29643 -0.23255,0.17342 0,0 z m -3.51604,-5.27867 c -0.42205,-0.64548 -0.35358,0.20955 0,0 z m -0.55428,-0.43859 c -0.3684,-0.31955 0.16512,0.53044 0,0 z m -2.49296,-2.17055 c -0.0829,-0.24958 -0.42075,0.15931 0,0 z m -23.22054,47.87366 0.14106,0.0143 z m -10.142812,-0.70629 c -1.75023,-0.64274 -0.61564,-1.04594 0,-2e-5 z m 27.562372,-0.30799 c 1.10598,-1.39854 5.95012,-3.80437 2.13554,-1.11537 -0.83843,0.16788 -1.20811,1.13859 -2.13554,1.11537 z m -31.625362,-0.52469 c -0.12658,-0.56476 0.60899,0.3116 0,0 z m -0.52225,-0.51409 c -1.24042,-1.00734 1.0684,0.056 0,0 z m 0.0162,-0.20768 c -0.54875,-0.37259 0.23348,0.42434 0,0 z m 2.01342,-0.35198 c -1.40834,-0.91878 -0.55587,-0.89632 0.16347,0.003 z m -3.20341,-0.61419 c -3.84207,-2.98494 -6.98034,-7.04715 -8.43206,-11.71472 -1.01626,-5.6542 -0.66276,-11.45851 -0.66425,-17.16908 -0.0434,-2.36057 1.82935,-7.45528 2.59155,-7.49606 -1.8054,3.26347 -2.3788,6.85847 -2.21587,10.56737 0.23023,4.80708 -0.25383,9.73722 0.91861,14.43618 1.17146,4.68502 4.81882,7.86916 7.80202,11.37631 z m -3.22646,-3.36098 c -0.32791,-0.63213 -0.0553,0.51036 0,0 z m 43.023752,3.08631 c 0.17382,-0.42746 0.0762,0.41704 0,0 z m -38.027802,-0.32369 c -1.86114,-1.09681 -2.24088,-3.28546 -0.17863,-0.91464 0.51573,0.66447 -2.22339,-1.74209 -0.16343,0.26895 -0.25409,-0.31009 0.95728,0.75723 0.34206,0.64569 z m -0.19068,-0.41859 c -0.10289,-0.29616 -0.17538,0.30247 0,0 z m 36.451052,0.17661 c 1.0394,-1.96355 2.60941,-1.34193 0,0 z m -18.9099,-1.67081 C 93.304898,184.6385 84.192828,174.42869 85.355228,163.84602 c 0.36236,-8.42348 6.91581,-16.09957 15.219132,-17.62898 7.56405,-1.96518 16.78462,0.80423 20.90133,7.74617 -3.00911,1.85706 -6.61261,8.79919 -10.00162,3.51754 -4.27968,-3.59662 -11.717282,-1.11393 -12.605392,4.50614 -0.9077,2.04698 -0.15206,8.71669 1.407542,7.57011 1.26705,-5.13473 6.98334,-6.6601 11.6134,-6.6321 2.86695,0.1118 7.68678,-4.84711 6.69709,0.57735 -0.38523,4.40482 -3.8259,9.24827 1.59161,11.72246 2.71331,3.41708 -2.94101,5.70845 -5.21287,7.37845 -3.38256,1.75191 -7.2643,2.46106 -11.05371,2.21128 z m 1.40642,-2.13168 c -5.605432,-2.11239 -4.37896,-10.68385 0.62001,-12.80185 1.64601,-0.8657 6.63665,-3.41954 6.54972,-2.61343 -2.23435,2.28158 -8.78983,3.73633 -7.55498,7.32887 3.00862,0.777 7.54267,-1.60989 8.16689,-2.83024 -6.27977,-1.11532 4.8059,-0.52985 2.99944,-4.42635 1.57467,-2.54901 0.30734,-5.05773 -2.44312,-3.18945 -2.84748,-0.85647 -5.97821,3.89455 -6.94623,1.20521 -4.51508,1.03074 -4.91898,5.83593 -5.88445,9.49014 -2.907642,2.966 -6.399892,-4.18566 -6.906512,-6.84698 -1.54632,-6.51163 2.76981,-14.30377 9.844932,-14.77094 4.11191,-1.01165 8.29192,2.01772 11.10612,3.44879 3.07816,-1.23665 4.68143,-5.06754 0.36129,-5.987 -8.84638,-5.89954 -22.882642,-2.15962 -26.451922,8.19318 -2.01159,5.1969 -1.47,11.43878 1.82534,15.9981 0.23996,-1.41337 2.482545,3.36287 0.23582,0.38024 1.4065,2.32861 5.111849,5.69393 7.58034,5.6094 1.16629,0.55732 5.105402,2.02791 3.844362,0.96482 1.00694,0.24051 2.00732,0.93023 3.05295,0.84749 z m -3.90672,-0.75425 c 0.284,-0.70661 0.46372,0.20503 0,0 z m -0.0928,-0.20503 0.14106,0.0143 z m -8.746162,-4.43922 -0.34303,-0.50714 z m -0.33678,-0.65607 c 0.0861,-0.3803 0.23929,0.26203 0,0 z m -0.32181,-0.17126 c -0.0861,-0.50405 0.26953,0.28458 0,0 z m 14.810672,-2.05437 0.23755,-0.19978 z m 0.74283,-0.20403 c 0.21995,-0.16692 0.25127,0.29346 0,0 z m -0.43029,-0.15712 c 0.18848,-0.30671 0.18848,0.30671 0,0 z m -0.58897,-0.22937 c 0.50483,-0.20762 0.49697,0.28893 0,0 z m 4.98729,-1.78221 c -0.42211,-1.04697 0.54444,0.53458 0,0 z m 0.41892,0.069 c -0.43498,-0.54157 0.68316,0.21229 0,0 z m 0.61311,-1.52354 c 0.63659,-0.41472 1.11981,0.39615 0,0 z m 0.93762,-0.28399 c 0.17529,-0.30243 0.10294,0.29613 0,0 z m 0.39364,0.005 c 1.63316,-2.82569 2.07178,-1.16172 0,0 z m 1.75863,-2.43369 c 0.33428,-0.51345 -0.13905,0.55182 0,0 z M 95.199768,154.27357 c 1.19205,-1.15007 -0.96206,1.08983 0,0 z m 4.25832,-2.7347 c 0.17537,-0.30247 0.10289,0.29616 0,0 z m 10.767892,-0.36591 0.14107,0.0143 z m -8.80802,-0.28724 c 0.2041,-0.28014 0.83081,0.20693 0,0 z m 6.59639,-0.20543 c 0.22001,-0.1669 0.25117,0.29341 0,0 z m -3.39939,-0.22217 c 0.5726,-0.29683 0.57265,0.23769 0,0 z m 0.70321,-0.008 c 0.52706,-0.24542 0.36657,0.16827 0,0 z m 0.4688,-0.005 c 0.28259,-0.32921 0.28259,0.32921 0,0 z m 11.19173,24.90225 c -3.34043,-4.20908 -5.90973,2.95681 -10.15415,1.82163 -2.98979,-0.59531 -4.40618,1.62116 -1.10894,2.77373 3.63552,1.1189 9.24059,-3.41477 10.30974,-3.62943 -1.02582,2.15557 -9.68919,4.82719 -6.7047,4.91952 l 0.96966,0.0122 c 0.37052,0.89541 11.07086,-2.005 6.68839,-5.89765 z m -8.28122,5.71865 c -0.46984,-0.33444 0.82476,-0.0554 0,0 z m 0.73812,-0.80381 c -0.17215,-0.75831 0.28106,0.37946 0,0 z m -0.28885,-0.35751 c 0.30391,-0.17659 0.26237,0.28932 0,0 z m 6.87587,-3.07421 c 0.27674,-1.06471 0.22583,0.34095 0,0 z m -9.21985,3.97193 -0.30696,-0.17413 z m 2.09855,-0.53027 c -0.46287,-0.48363 0.10905,0.87195 0,0 z m -2.86036,0.20224 c -0.26952,-0.6761 -1.56879,-0.23168 0,0 z m 3.83297,-0.62361 c 0.21563,-0.58956 -0.38615,0.074 0,0 z m 4.45955,-1.94617 c -0.14604,-0.29097 -0.10114,0.42715 0,0 z m 10.12764,6.82237 0.54056,-0.47133 z m 0.39067,-0.16853 c 0.0829,-0.24959 0.42076,0.15931 0,0 z m -40.655892,-0.0995 c -0.39063,-0.64167 0.36668,-0.13971 0,0 z m 0.31033,-0.29951 c 0.0762,-0.41704 0.1738,0.42742 0,0 z m 41.283182,-0.45487 c 1.02608,-2.24562 1.86256,-0.8934 0,0 z m 0.85947,-0.82796 c 0.37753,-0.95388 -0.69861,0.46891 0,0 z m -42.968992,0.28661 c -1.46213,-1.66973 -1.35822,-2.03786 0,0 z m 43.282732,-1.13456 c 1.07291,-1.13251 4.03755,-6.66338 2.00682,-2.16309 -0.60551,0.9901 -1.06052,1.82267 -2.00682,2.16309 z m 2.09334,-2.87189 -0.11778,0.18412 z m 0.4471,-0.39543 c -0.36074,-0.14436 -0.29842,0.28383 0,0 z m -47.468872,2.47267 c 0.0914,-0.39129 0.21578,0.28898 0,0 z m -0.67296,-0.68828 c -2.16353,-2.62752 0.8284,-0.37115 0,0 z m 0.0591,-0.47977 c -0.13438,-0.38712 0.3531,0.27108 0,0 z m -1.10507,-1.10707 c 0.23268,-0.17347 0.14369,0.29626 0,0 z m -0.18448,-0.34687 c -0.31194,-0.59413 0.48558,0.0229 0,0 z m -0.3563,-0.95075 c -0.97639,-1.51194 0.71115,0.23116 0,0 z m -0.26575,-0.52591 c -0.11753,-1.14746 0.38871,0.3282 0,0 z m 50.617152,-0.12521 c 0.17531,-0.30247 0.10289,0.29607 0,0 z m 0.19262,-0.25638 c 0.0242,-2.04697 0.78431,-0.2854 0,0 z m -50.823652,-0.1343 c 0.17537,-0.30247 0.10288,0.29616 0,0 z m 0.005,-0.30392 c -0.91089,-0.33738 0.42893,-0.31666 0,0 z m -0.42889,-0.523 c 0.14421,-0.18977 -0.008,0.35821 0,0 z m 0.19931,-0.14803 c -2.05935,-4.50407 -1.45038,-9.73784 -1.36509,-14.57763 -0.10923,-2.66155 2.10937,-8.81011 2.54031,-8.65961 -0.84673,1.8109 1.38261,-1.60114 0.0326,0.68293 -2.60451,5.63244 -2.66933,12.05795 -2.20347,18.0786 0.50942,1.40303 0.2503,3.06953 0.99569,4.47571 z m -0.3878,-1.24843 c -0.20614,-0.2749 -0.003,0.36563 0,0 z m -0.36462,-2.23027 c -0.17976,-0.67046 -0.47957,0.29664 0,0 z m 0.21304,-13.98773 c -0.21523,-0.42117 -0.0938,0.55245 0,0 z m 0.28249,-1.28355 c -0.24224,-0.29402 -0.19274,0.40087 0,0 z m 0.12954,-0.30815 c -0.0828,-0.24957 -0.4208,0.15923 0,0 z m 0.0536,-0.69421 c -0.39939,-0.35069 -0.0323,1.0601 0,0 z m 51.565262,19.6716 c 0.0186,-1.14409 1.59674,-4.03062 0,0 z m 0.10605,-0.27014 c -0.30391,-0.17659 -0.26237,0.28932 0,0 z m 0.50843,-2.57998 c 0.21998,-0.16691 0.25122,0.29342 0,0 z m 0.11902,-0.31824 c 0.41081,-1.07899 0.42512,-0.0829 0,0 z m 0.17994,-0.6559 c 0.20617,-0.27489 0.003,0.36565 0,0 z m -0.0589,-0.30946 c 0.5929,-2.47563 0.002,-5.82633 0.11102,-7.86363 0.47558,2.51024 1.06699,5.45678 -0.11102,7.86363 z m -51.529592,-5.24803 c 0.14421,-0.18979 -0.008,0.35816 0,0 z m 0.0379,-0.47846 c -0.0693,-0.3418 0.26103,0.40569 0,0 z M 79.924278,165.29 c 0.17537,-0.30247 0.10288,0.29616 0,0 z m 0.18916,-0.28555 c -0.67461,-0.92581 0.60788,0.003 0,0 z m 51.340412,-2.44915 c 0.0224,-0.56595 0.37278,0.27691 0,0 z m 0.0195,-0.52798 c -0.83156,-0.5517 0.90119,0.14462 0,0 z m -0.11137,-0.31712 c -0.93395,-1.96395 0.17878,-1.86707 0,0 z m -0.31837,-2.09762 c -0.31236,-0.36555 0.55345,0.1364 0,0 z m -0.25394,-0.11981 c -0.48141,-0.6906 0.6759,-0.09 0,0 z m -0.0871,-0.52446 c -0.26971,-0.79191 0.53546,-0.09 0,0 z m -0.10176,-0.15297 c -0.18382,-0.37174 0.36054,0.0299 0,0 z m -0.10202,-0.39741 c -0.12705,-0.87926 0.35104,0.52563 0,0 z m 0.23878,-0.35192 c 0.20615,-0.27489 0.003,0.36562 0,0 z m -0.26044,-0.12064 c -0.84806,-1.78588 -1.42615,-4.06607 -0.11971,-1.06568 -0.0669,-0.21864 0.5714,1.3177 0.11971,1.06568 z m -0.457,-1.90005 c -0.61014,-0.787 -0.12311,0.36729 0,0 z m -0.40248,-0.93723 c -0.96742,-0.75141 0.0285,-0.75249 0,0 z m -0.64833,-0.86108 c 0.0137,-0.70605 0.28305,0.27659 0,0 z m -0.28928,-0.19999 c 0.19208,-0.50712 0.2408,0.23069 0,0 z m -0.0781,-0.3209 c -0.0704,-0.30421 0.38012,0.3704 0,0 z m 0.19771,-0.22693 -0.38377,-0.562 z m -0.47118,-0.16374 c 0.10289,-0.29607 0.17531,0.30247 0,0 z m -0.13836,-0.82855 c -0.36207,-0.37718 0.33044,-0.16085 0,0 z m -0.39555,-0.78623 c -0.28347,-0.34016 0.35865,0.0452 0,0 z m -0.15627,-0.31253 c -0.2835,-0.34016 0.35865,0.0452 0,0 z m -46.698282,-0.15256 c 0.43356,-1.9698 6.1416,-6.76569 2.65405,-2.89773 -0.99428,0.98505 -2.51456,2.41453 -1.41177,1.7082 l -0.58856,0.66318 z m 46.528982,-0.18602 c 0.10305,-0.2962 0.17547,0.30249 0,0 z m -0.15948,-0.31774 c -0.1037,-0.39676 0.25799,0.29911 0,0 z m -48.791662,-0.10364 c 0.0829,-0.24956 0.42078,0.15933 0,0 z m 48.508822,-0.34281 c -0.39835,-0.77588 -2.55156,-3.79472 -1.02714,-1.34585 -3.03551,-3.25443 0.91853,-0.43602 1.1237,1.3597 z m -48.508822,-0.17343 c 1.88335,-3.11419 4.9889,-5.09961 7.63537,-7.38977 1.15594,-0.14293 2.79896,-1.35131 0.28753,0.44251 -3.33374,1.50582 -5.09153,4.89755 -7.9229,6.94726 z m 46.382362,-2.77678 c -0.25413,-0.58052 0.31306,0.323 0,0 z m -0.0878,-0.42672 c 0.12014,-0.32258 0.24662,0.34036 0,0 z m -0.39067,-0.49717 c -0.66793,-0.97125 0.75047,0.64893 0,0 z m -39.106232,-0.0823 c 0.23676,-0.45868 0.27393,0.37581 0,0 z m 38.520222,-0.0456 c -0.23641,-0.41636 0.46165,0.19886 0,0 z m -38.238732,-0.14274 c 0.19589,-0.27177 0.25724,0.27902 0,0 z m -2.4768,-1.05342 0.71025,-0.57964 z m 3.33817,0.0476 c 1.41158,-1.6494 4.14418,-1.4978 0.92964,-0.41037 -0.3015,-0.30041 -0.64237,0.32077 -0.92964,0.41037 z m 35.797282,-0.40712 c -1.7442,-0.95498 -0.43442,-1.06088 0,0 z m -38.266892,-0.36001 c 0.36121,-0.39345 -0.12045,0.39805 0,0 z m 4.29582,-0.49762 c 0.17542,-0.3992 0.2533,0.28398 0,0 z m 32.816422,-0.0735 c -1.52537,-0.75489 -0.19129,-0.59178 0,0 z m -32.464812,-0.16929 c 0.24663,-0.34029 0.12022,0.32254 0,0 z m 31.335852,-0.57645 c -0.22422,-0.57408 0.98561,0.58858 0,0 z M 87.450518,141.9716 c 1.68007,-1.11917 -0.53605,0.65301 0,0 z m 5.75653,-0.18653 c 1.54293,-1.39057 6.47152,-2.34409 2.20145,-0.76296 -0.72328,0.28307 -1.45259,0.55447 -2.20145,0.76296 z m -4.9955,-0.21451 c 0.481,-0.46617 -0.0494,0.37476 0,0 z m 29.104532,-0.30888 c -0.26824,-0.4405 0.71948,0.56674 0,0 z m -0.39471,-0.19195 c 0.22001,-0.1669 0.25117,0.29341 0,0 z m -27.386642,-0.15716 c 0.17536,-0.30246 0.10289,0.29615 0,0 z m 5.31314,-0.0781 c 0.17537,-0.30247 0.10287,0.29616 0,0 z m -5.0006,-0.0827 c 1.92049,-0.49218 7.5469,-3.9996 7.0117,-2.97805 -2.48795,0.71428 -4.34401,2.87764 -7.0117,2.97805 z m 25.374122,-0.28154 0.1906,0.004 z m -0.91808,-0.34354 c 0.23289,-0.17337 0.14322,0.29599 0,0 z m -12.89216,-1.02215 c 0.60093,-1.65503 9.60713,-0.0327 4.11106,-0.18093 -1.37115,0.0409 -2.741,0.11438 -4.11106,0.18093 z m -5.156862,-1.03544 c 0.0828,-0.24956 0.42078,0.15933 0,0 z m 1.7043,-0.72587 0.14107,0.0143 z m 0.0928,-0.18103 c -0.0706,-0.30418 0.3801,0.37026 0,0 z m -13.967,66.59666 c -0.0859,-0.54933 -0.27424,0.16426 0,0 z m 43.168082,-0.85478 c -0.26433,-0.2201 -0.10991,0.19632 0,0 z m -46.156222,-1.71085 c -0.55854,-0.51424 0.18696,0.40824 0,0 z m -5.0006,-3.16765 c -0.76519,-0.11942 0.44163,0.28134 0,0 z m -0.70321,-0.42653 c -0.45828,-0.5337 0.12008,0.40203 0,0 z m -2.93152,-2.67711 c -1.01669,-1.33685 0.33397,0.93783 0,0 z m 65.637782,-0.88362 c -0.23584,-0.60496 -0.50072,0.88027 0,0 z m -67.654762,-3.15539 c -0.20615,-0.2749 -0.003,0.36563 0,0 z m 72.476082,-5.81906 c 0.77119,-1.3346 -0.95984,1.05587 0,0 z m 0.47832,-0.84864 -0.24408,-0.0703 z m -79.066692,-5.95442 c -0.48259,1.47566 0.46902,2.30159 0,0 z m 81.459812,1.6845 c -0.14327,-0.29627 -0.23288,0.17317 0,0 z m -83.013012,-5.76702 c -0.052,-0.949 -0.3275,0.10223 0,0 z m -0.26863,-0.81455 c -0.30764,-0.30939 0.28823,0.58083 0,0 z m -0.0607,-0.30224 c -0.25172,-0.31296 0.0891,0.39185 0,0 z m 84.203372,-17.41872 c -0.66547,-0.29486 0.28324,0.92393 0,0 z m -2.53928,-6.33562 c -0.2911,-0.12332 -0.16432,0.30215 0,0 z m -0.089,-0.23358 c -0.14604,-0.29097 -0.10114,0.42715 0,0 z m -8.42603,-13.07824 c -0.35103,-0.37224 0.0576,0.42904 0,0 z M 73.984858,135.7316 c -0.43746,-0.0673 0.11188,0.55864 0,0 z m 60.367412,-1.08181 c -0.82853,-0.7508 -0.75761,0.0355 0,0 z m -5.5016,-4.22411 c -0.31808,-0.0888 0.31639,0.34839 0,0 z m -6.96828,-3.06477 c -0.14358,-0.29625 -0.23263,0.17345 0,0 z m -1.95336,-1.41103 c -0.48942,-0.47325 0.0186,0.43509 0,0 z m -29.964512,-0.1172 c 0.0523,-0.40176 -0.77186,0.55675 0,0 z m 10.430892,-0.87901 c -0.850232,-0.33758 -1.028692,0.34544 0,0 z"
       id="path1" /></g></svg>
